# xmcd
# Track frame offsets:
# 183
# 11655
# 24023
# 33773
# 47918
# 60023
# 74195
# 83090
# 97748
# 113935
#
# Disc length: 1701 seconds
# Revision: 0
# Processed by: cddbd v1.4PL0 Copyright (c) Steve Scherf et al.
# Submitted via: VisiTrax 2.9.5.180 - For more info visit www.synapsa.com
#
DISCID=6e06a30a
DTITLE=Willie Nelson and David Allen Coe - Willie and David Sun Collector Classic
DTITLE=s
DYEAR=1980
DGENRE=
TTITLE0=Willie Nelson - Night Life
TTITLE1=Willie Nelson - The Storm Within My Heart
TTITLE2=Willie Nelson - Man With The Blues
TTITLE3=Willie, Nelson - Rainy Day Blues
TTITLE4=Willie Nelson - Follow Me Around
TTITLE5=David Allen Coe - Ride Me Down Easy
TTITLE6=David Allen Coe - Fuzzy Was An Outlaw
TTITLE7=David Allen Coe - Why Me
TTITLE8=David Allen Coe - Got You On My Mind
TTITLE9=David Allen Coe - Why You Been Gone So Long
EXTD=
EXTT0=
EXTT1=
EXTT2=
EXTT3=
EXTT4=
EXTT5=
EXTT6=
EXTT7=
EXTT8=
EXTT9=
PLAYORDER=
